<svg xmlns="http://www.w3.org/2000/svg" width="24" height="24" viewBox="0 0 24 24" fill="none" stroke="#4f46e5" stroke-width="2" stroke-linecap="round" stroke-linejoin="round">
  <path d="M12 2a2 2 0 0 0-2 2c0 1.1.9 2 2 2a2 2 0 0 0 2-2c0-1.1-.9-2-2-2z"></path>
  <path d="M12 8c-1.1 0-2 .9-2 2s.9 2 2 2 2-.9 2-2-.9-2-2-2z"></path>
  <path d="M12 14a2 2 0 0 0-2 2c0 1.1.9 2 2 2a2 2 0 0 0 2-2c0-1.1-.9-2-2-2z"></path>
  <path d="M6 9a2 2 0 0 0-2 2c0 1.1.9 2 2 2a2 2 0 0 0 2-2c0-1.1-.9-2-2-2z"></path>
  <path d="M18 9a2 2 0 0 0-2 2c0 1.1.9 2 2 2a2 2 0 0 0 2-2c0-1.1-.9-2-2-2z"></path>
  <path d="M12 2v4"></path>
  <path d="M12 14v4"></path>
  <path d="M6 13v-2"></path>
  <path d="M18 13v-2"></path>
  <path d="M8.93 15.93l2.12-2.12"></path>
  <path d="M12.95 10.05l2.12-2.12"></path>
  <path d="M8.93 8.07l2.12 2.12"></path>
  <path d="M12.95 13.95l2.12 2.12"></path>
</svg>
